<?xml version="1.0" encoding="UTF-8" standalone="no"?>
<!-- Created with Inkscape (http://www.inkscape.org/) -->

<svg
   xmlns:dc="http://purl.org/dc/elements/1.1/"
   xmlns:cc="http://creativecommons.org/ns#"
   xmlns:rdf="http://www.w3.org/1999/02/22-rdf-syntax-ns#"
   xmlns:svg="http://www.w3.org/2000/svg"
   xmlns="http://www.w3.org/2000/svg"
   xmlns:sodipodi="http://sodipodi.sourceforge.net/DTD/sodipodi-0.dtd"
   xmlns:inkscape="http://www.inkscape.org/namespaces/inkscape"
   width="210mm"
   height="297mm"
   viewBox="0 0 744.09448819 1052.3622047"
   id="svg2"
   version="1.1"
   inkscape:version="0.91 r13725"
   shape-rendering="crispEdges"
   sodipodi:docname="sheild.svg">
  <defs
     id="defs4" />
  <sodipodi:namedview
     id="base"
     pagecolor="#ffffff"
     bordercolor="#666666"
     borderopacity="1.0"
     inkscape:pageopacity="0.0"
     inkscape:pageshadow="2"
     inkscape:zoom="1.1543254"
     inkscape:cx="199.16787"
     inkscape:cy="443.88422"
     inkscape:document-units="px"
     inkscape:current-layer="layer1"
     showgrid="false"
     showborder="false"
     inkscape:window-width="1855"
     inkscape:window-height="1056"
     inkscape:window-x="1431"
     inkscape:window-y="24"
     inkscape:window-maximized="1"
     inkscape:object-nodes="true"
     inkscape:snap-nodes="false" />
  <metadata
     id="metadata7">
    <rdf:RDF>
      <cc:Work
         rdf:about="">
        <dc:format>image/svg+xml</dc:format>
        <dc:type
           rdf:resource="http://purl.org/dc/dcmitype/StillImage" />
        <dc:title></dc:title>
      </cc:Work>
    </rdf:RDF>
  </metadata>
  <g
     inkscape:label="Layer 1"
     inkscape:groupmode="layer"
     id="layer1">
    <path
       style="color:#000000;font-style:normal;font-variant:normal;font-weight:normal;font-stretch:normal;font-size:medium;line-height:normal;font-family:sans-serif;text-indent:0;text-align:start;text-decoration:none;text-decoration-line:none;text-decoration-style:solid;text-decoration-color:#000000;letter-spacing:normal;word-spacing:normal;text-transform:none;direction:ltr;block-progression:tb;writing-mode:lr-tb;baseline-shift:baseline;text-anchor:start;white-space:normal;clip-rule:nonzero;display:inline;overflow:visible;visibility:visible;opacity:1;isolation:auto;mix-blend-mode:normal;color-interpolation:sRGB;color-interpolation-filters:linearRGB;solid-color:#000000;solid-opacity:1;fill:#000000;fill-opacity:0.6226415;fill-rule:evenodd;stroke:none;stroke-width:10;stroke-linecap:butt;stroke-linejoin:miter;stroke-miterlimit:4;stroke-dasharray:none;stroke-dashoffset:0;stroke-opacity:1;color-rendering:auto;image-rendering:auto;shape-rendering:auto;text-rendering:auto;enable-background:accumulate"
       d="m 220.60685,447.36133 0,1.54287 -141.971236,44.07318 0,225.96007 147.720016,-45.85827 311.5728,0 147.72001,45.85827 0,-225.96007 -141.97125,-44.07318 0,-1.54287 -323.07034,0 z"
       id="path4192"
       inkscape:connector-curvature="0"
       inkscape:transform-center-x="128.60192"
       inkscape:transform-center-y="404.87183" />
    <path
       style="color:#000000;font-style:normal;font-variant:normal;font-weight:normal;font-stretch:normal;font-size:medium;line-height:normal;font-family:sans-serif;text-indent:0;text-align:start;text-decoration:none;text-decoration-line:none;text-decoration-style:solid;text-decoration-color:#000000;letter-spacing:normal;word-spacing:normal;text-transform:none;direction:ltr;block-progression:tb;writing-mode:lr-tb;baseline-shift:baseline;text-anchor:start;white-space:normal;clip-rule:nonzero;display:inline;overflow:visible;visibility:visible;opacity:1;isolation:auto;mix-blend-mode:normal;color-interpolation:sRGB;color-interpolation-filters:linearRGB;solid-color:#000000;solid-opacity:1;fill:#000000;fill-opacity:1;fill-rule:evenodd;stroke:none;stroke-width:5;stroke-linecap:butt;stroke-linejoin:miter;stroke-miterlimit:4;stroke-dasharray:none;stroke-dashoffset:0;stroke-opacity:1;color-rendering:auto;image-rendering:auto;shape-rendering:auto;text-rendering:auto;enable-background:accumulate"
       d="m 361.45454,311.09766 -1.44727,1.02734 -4.33984,3.08008 c -40.43019,28.69356 -135.44913,60.29729 -194.15234,61.82031 l -9.79297,0.25586 0.0527,9.79687 c 1.0615,195.07641 81.72449,366.9571 204.67969,437.94532 l 5,2.88476 5,-2.88476 C 489.4097,754.03522 570.07276,582.15453 571.13423,387.07812 l 0.0527,-9.79687 -9.79297,-0.25586 C 502.69077,375.50237 407.67184,343.89864 367.24165,315.20508 l -5.78711,-4.10742 z m 0,6.13281 2.89258,2.05273 c 42.00031,29.80789 136.59062,61.17703 196.91797,62.74219 l 4.89453,0.12695 -0.0254,4.89844 C 565.0802,580.76244 484.69646,750.981 363.95454,820.69141 l -2.5,1.44336 -2.5,-1.44336 C 238.21258,750.981 157.82889,580.76244 156.77485,387.05078 l -0.0254,-4.89844 4.89453,-0.12695 c 60.32731,-1.56516 154.91766,-32.9343 196.91797,-62.74219 l 2.89258,-2.05273 z m 0,6.13086 c -43.44763,30.83506 -137.84029,62.05772 -199.67969,63.66211 1.04654,192.3347 81.18357,360.92412 199.67969,429.33789 l 0,-493 z"
       id="path4168"
       inkscape:connector-curvature="0" />
    <path
       style="fill:#ffffff;fill-rule:evenodd;stroke:none;stroke-width:1px;stroke-linecap:butt;stroke-linejoin:miter;stroke-opacity:1"
       d="m 225.28862,455.85694 313.70764,0 0,208.72874 -313.70764,0 z"
       id="rect4174"
       inkscape:connector-curvature="0" />
    <path
       id="path4177"
       d="m 83.317207,500.13979 141.971413,-44.0733 0,208.72874 -141.971413,44.0733 z"
       style="fill:#0000ff;fill-rule:evenodd;stroke:none;stroke-width:1px;stroke-linecap:butt;stroke-linejoin:miter;stroke-opacity:1"
       inkscape:connector-curvature="0"
       inkscape:transform-center-x="71.660707"
       inkscape:transform-center-y="126.27577" />
    <path
       inkscape:transform-center-y="126.27577"
       inkscape:transform-center-x="-71.66071"
       inkscape:connector-curvature="0"
       style="fill:#ffffff;fill-rule:evenodd;stroke:none;stroke-width:1px;stroke-linecap:butt;stroke-linejoin:miter;stroke-opacity:1"
       d="m 680.96768,500.13979 -141.97142,-44.0733 0,208.72874 141.97142,44.0733 z"
       id="path4179" />
    <path
       style="fill:#000000;fill-rule:evenodd;stroke:none;stroke-width:1px;stroke-linecap:butt;stroke-linejoin:miter;stroke-opacity:1;fill-opacity:0.6226415"
       d="M 504.34766 673.08008 C 504.34213 673.09063 504.33561 673.10077 504.33008 673.11133 C 503.66276 674.3847 502.98288 675.64478 502.30664 676.9082 C 501.79812 677.85825 501.2948 678.81346 500.78125 679.75781 C 500.13947 680.93806 499.48746 682.10604 498.83789 683.27734 C 498.30575 684.2368 497.77564 685.19895 497.23828 686.15234 C 496.55497 687.36485 495.86357 688.5669 495.17188 689.76953 C 494.64857 690.67926 494.12574 691.59012 493.59766 692.49414 C 492.87385 693.73343 492.14093 694.96292 491.4082 696.19141 C 490.92543 697.00067 490.44367 697.8107 489.95703 698.61523 C 489.15439 699.94249 488.34629 701.26188 487.5332 702.57617 C 487.11554 703.25113 486.69579 703.92419 486.27539 704.5957 C 485.40944 705.97923 484.53963 707.35584 483.66211 708.72461 C 483.26412 709.34525 482.86325 709.9625 482.46289 710.58008 C 481.5877 711.93045 480.70872 713.27569 479.82227 714.61133 C 479.39258 715.25858 478.95966 715.90116 478.52734 716.54492 C 477.62182 717.8937 476.71389 719.23892 475.79688 720.57227 C 475.46523 721.05434 475.13001 721.53168 474.79688 722.01172 C 473.75848 723.50842 472.71692 724.99976 471.66406 726.47656 C 471.53334 726.65987 471.40047 726.84044 471.26953 727.02344 C 463.45679 737.94511 455.2493 748.31657 446.66992 758.08984 C 445.24696 759.71083 443.81441 761.3145 442.37109 762.90234 C 442.34446 762.93165 442.31766 762.96094 442.29102 762.99023 L 538.75586 762.99023 L 683.15625 718.16406 L 537.92773 673.08008 L 504.34766 673.08008 z M 219.66406 675.15625 L 81.955078 717.90625 L 227.18359 762.99023 L 280.61914 762.99023 C 280.59222 762.96063 280.56598 762.93 280.53906 762.90039 C 271.92902 753.42805 263.67977 743.36466 255.8125 732.75195 C 254.56513 731.06929 253.3296 729.37012 252.10156 727.66016 C 251.99896 727.51729 251.89544 727.37548 251.79297 727.23242 C 250.65021 725.63699 249.51644 724.02896 248.39062 722.41016 C 248.18762 722.11826 247.98565 721.82585 247.7832 721.5332 C 246.69613 719.96179 245.61595 718.38011 244.54492 716.78711 C 244.341 716.48381 244.13888 716.17907 243.93555 715.875 C 242.84452 714.24344 241.75967 712.60297 240.68555 710.94922 C 240.55818 710.75313 240.43181 710.55578 240.30469 710.35938 C 239.15998 708.59087 238.02369 706.81295 236.89844 705.01953 C 230.86958 695.4108 225.12099 685.44768 219.66602 675.15625 L 219.66406 675.15625 z "
       id="path4200" />
    <path
       inkscape:transform-center-y="126.27577"
       inkscape:transform-center-x="71.660707"
       inkscape:connector-curvature="0"
       style="fill:#ff0000;fill-rule:evenodd;stroke:none;stroke-width:1px;stroke-linecap:butt;stroke-linejoin:miter;stroke-opacity:1"
       d="m 83.317207,500.13979 141.971413,-44.0733 0,208.72874 -141.971413,44.0733 z"
       id="path4217" />
    <path
       id="path4219"
       d="m 83.317207,500.13979 141.971413,-44.0733 0,208.72874 -141.971413,44.0733 z"
       style="fill:#ffffff;fill-rule:evenodd;stroke:none;stroke-width:1px;stroke-linecap:butt;stroke-linejoin:miter;stroke-opacity:1"
       inkscape:connector-curvature="0"
       inkscape:transform-center-x="71.660707"
       inkscape:transform-center-y="126.27577" />
    <text
       xml:space="preserve"
       style="font-style:normal;font-variant:normal;font-weight:normal;font-stretch:normal;font-size:30px;line-height:125%;font-family:Arial;-inkscape-font-specification:'Arial, Normal';text-align:start;letter-spacing:0px;word-spacing:0px;writing-mode:lr-tb;text-anchor:start;fill:#000000;fill-opacity:1;stroke:none;stroke-width:1px;stroke-linecap:butt;stroke-linejoin:miter;stroke-opacity:1"
       x="-111.75358"
       y="887.76392"
       id="text4222"
       sodipodi:linespacing="125%"><tspan
         sodipodi:role="line"
         id="tspan4224"
         x="-111.75358"
         y="887.76392">WL</tspan></text>
  </g>
</svg>
