<?xml version="1.0" encoding="UTF-8" standalone="no"?>
<!-- Created with Inkscape (http://www.inkscape.org/) -->

<svg
   xmlns:dc="http://purl.org/dc/elements/1.1/"
   xmlns:cc="http://creativecommons.org/ns#"
   xmlns:rdf="http://www.w3.org/1999/02/22-rdf-syntax-ns#"
   xmlns:svg="http://www.w3.org/2000/svg"
   xmlns="http://www.w3.org/2000/svg"
   xmlns:sodipodi="http://sodipodi.sourceforge.net/DTD/sodipodi-0.dtd"
   xmlns:inkscape="http://www.inkscape.org/namespaces/inkscape"
   width="210mm"
   height="297mm"
   viewBox="0 0 210 297"
   version="1.1"
   id="svg6021"
   inkscape:version="0.92.5 (0.92.5+68)"
   sodipodi:docname="logo.svg">
  <defs
     id="defs6015">
    <inkscape:path-effect
       effect="perspective-envelope"
       up_left_point="96.574466,145.43454"
       up_right_point="100.82382,145.43454"
       down_left_point="96.574466,158.55436"
       down_right_point="100.82382,163.78091"
       id="path-effect6887"
       is_visible="true"
       deform_type="envelope_deformation"
       horizontal_mirror="false"
       vertical_mirror="false"
       overflow_perspective="false" />
    <inkscape:path-effect
       effect="perspective-envelope"
       up_left_point="92.110138,145.43453"
       up_right_point="96.360008,145.43453"
       down_left_point="92.110138,152.73848"
       down_right_point="96.360008,155.43444"
       id="path-effect6884"
       is_visible="true"
       deform_type="envelope_deformation"
       horizontal_mirror="false"
       vertical_mirror="false"
       overflow_perspective="false" />
    <inkscape:path-effect
       effect="perspective-envelope"
       up_left_point="88.418891,145.43453"
       up_right_point="91.895683,145.43453"
       down_left_point="88.418891,151.59746"
       down_right_point="91.895683,152.64184"
       id="path-effect6878"
       is_visible="true"
       deform_type="envelope_deformation"
       horizontal_mirror="false"
       vertical_mirror="false"
       overflow_perspective="false" />
    <inkscape:path-effect
       effect="perspective-envelope"
       up_left_point="83.783,145.43453"
       up_right_point="88.246809,145.43453"
       down_left_point="83.783,151.51013"
       down_right_point="88.246809,151.56491"
       id="path-effect6875"
       is_visible="true"
       deform_type="perspective"
       horizontal_mirror="false"
       vertical_mirror="false"
       overflow_perspective="false" />
    <inkscape:path-effect
       effect="perspective-envelope"
       up_left_point="82.052355,145.43453"
       up_right_point="83.597998,145.43453"
       down_left_point="82.052355,151.85326"
       down_right_point="83.597998,151.5339"
       id="path-effect6872"
       is_visible="true"
       deform_type="envelope_deformation"
       horizontal_mirror="false"
       vertical_mirror="false"
       overflow_perspective="false" />
    <inkscape:path-effect
       effect="perspective-envelope"
       up_left_point="77.733238,145.43453"
       up_right_point="81.896809,145.43453"
       down_left_point="77.733238,153.65057"
       down_right_point="81.896809,151.89305"
       id="path-effect6867"
       is_visible="true"
       deform_type="envelope_deformation"
       horizontal_mirror="false"
       vertical_mirror="false"
       overflow_perspective="false" />
    <inkscape:path-effect
       effect="perspective-envelope"
       up_left_point="70.758525,145.42737"
       up_right_point="77.560069,145.42737"
       down_left_point="70.758525,163.79312"
       down_right_point="77.550305,156.69245"
       id="path-effect6864"
       is_visible="true"
       deform_type="envelope_deformation"
       horizontal_mirror="false"
       vertical_mirror="false"
       overflow_perspective="false" />
    <filter
       inkscape:collect="always"
       style="color-interpolation-filters:sRGB"
       id="filter7253"
       x="-0.019829682"
       width="1.0396594"
       y="-0.030391553"
       height="1.0607831">
      <feGaussianBlur
         inkscape:collect="always"
         stdDeviation="0.27019246"
         id="feGaussianBlur7255" />
    </filter>
  </defs>
  <sodipodi:namedview
     id="base"
     pagecolor="#ffffff"
     bordercolor="#666666"
     borderopacity="1.0"
     inkscape:pageopacity="0.0"
     inkscape:pageshadow="2"
     inkscape:zoom="5.9263089"
     inkscape:cx="348.44959"
     inkscape:cy="531.11134"
     inkscape:document-units="mm"
     inkscape:current-layer="layer1"
     showgrid="false"
     inkscape:snap-midpoints="false"
     showguides="false"
     inkscape:guide-bbox="true"
     inkscape:window-width="1855"
     inkscape:window-height="1056"
     inkscape:window-x="1431"
     inkscape:window-y="24"
     inkscape:window-maximized="1"
     inkscape:object-nodes="true">
    <sodipodi:guide
       position="90.755991,179.9549"
       orientation="1,0"
       id="guide6574"
       inkscape:locked="false" />
    <sodipodi:guide
       position="69.40164,163.7167"
       orientation="1,0"
       id="guide6576"
       inkscape:locked="false" />
    <sodipodi:guide
       position="110.7757,172.61435"
       orientation="1,0"
       id="guide6578"
       inkscape:locked="false" />
    <sodipodi:guide
       position="88.932965,168.74697"
       orientation="0,1"
       id="guide6753"
       inkscape:locked="false" />
  </sodipodi:namedview>
  <metadata
     id="metadata6018">
    <rdf:RDF>
      <cc:Work
         rdf:about="">
        <dc:format>image/svg+xml</dc:format>
        <dc:type
           rdf:resource="http://purl.org/dc/dcmitype/StillImage" />
        <dc:title></dc:title>
      </cc:Work>
    </rdf:RDF>
  </metadata>
  <g
     inkscape:label="Layer 1"
     inkscape:groupmode="layer"
     id="layer1">
    <path
       style="color:#000000;font-style:normal;font-variant:normal;font-weight:normal;font-stretch:normal;font-size:14.11111069px;line-height:125%;font-family:'League Gothic';-inkscape-font-specification:'League Gothic, Normal';font-variant-ligatures:normal;font-variant-position:normal;font-variant-caps:normal;font-variant-numeric:normal;font-variant-alternates:normal;font-feature-settings:normal;text-indent:0;text-align:start;text-decoration:none;text-decoration-line:none;text-decoration-style:solid;text-decoration-color:#000000;letter-spacing:1.41816664px;word-spacing:1.85472918px;text-transform:none;writing-mode:lr-tb;direction:ltr;text-orientation:mixed;dominant-baseline:auto;baseline-shift:baseline;text-anchor:start;white-space:normal;shape-padding:0;clip-rule:nonzero;display:inline;overflow:visible;visibility:visible;opacity:1;isolation:auto;mix-blend-mode:normal;color-interpolation:sRGB;color-interpolation-filters:linearRGB;solid-color:#000000;solid-opacity:1;vector-effect:none;fill:#ff2a2a;fill-opacity:1;fill-rule:nonzero;stroke:none;stroke-width:1.32291663;stroke-linecap:butt;stroke-linejoin:miter;stroke-miterlimit:4;stroke-dasharray:none;stroke-dashoffset:0;stroke-opacity:1;color-rendering:auto;image-rendering:auto;shape-rendering:auto;text-rendering:auto;enable-background:accumulate"
       d="m 69.445312,144.11133 v 0.66211 0.66015 0.16797 l 1.638672,19.84571 2.09375,-2.86329 c 0.390621,-0.53416 0.80052,-1.04309 1.228516,-1.52148 l 0.292969,-0.32617 0.0078,-0.084 1.074219,-0.97265 c 0.398397,-0.3607 0.808152,-0.69988 1.228516,-1.01563 l 0.458984,-0.34375 0.351562,-3.1875 0.580079,-0.33984 c 0.450973,-0.26376 0.91086,-0.50365 1.376953,-0.7168 l 0.152344,-0.0684 0.927734,-0.36914 c 0.455971,-0.1805 0.919418,-0.33637 1.386719,-0.46875 l 0.142578,-0.0371 c 0.467941,-0.12202 0.93895,-0.21851 1.412109,-0.29101 l 0.148438,-0.0234 1.40039,-0.12109 c 0.157647,-0.0136 0.316877,-0.0232 0.478516,-0.0312 0.272846,0.0124 0.544949,0.0322 0.814453,0.0605 l 1.378906,0.14453 0.169922,0.0293 c 1.080916,0.19061 2.146573,0.51062 3.183594,0.95703 l 0.0293,0.0117 h -0.0039 l 0.167968,0.0762 c 0.475769,0.21464 0.944113,0.4554 1.404297,0.72266 l 0.626953,0.36328 0.0059,0.0352 0.46289,0.30664 c 0.451066,0.29945 0.888907,0.63252 1.31836,0.98242 0.06259,0.49456 0.134429,0.99859 0.292968,1.53125 2.16e-4,7.5e-4 0.0017,0.001 0.002,0.002 3.9e-4,0.001 -3.92e-4,0.003 0,0.004 0.351784,1.21787 0.983362,2.51425 2.050781,3.79492 0.467879,0.56136 0.930017,1.02171 1.570312,1.25781 0.354635,0.13082 0.774116,0.17866 1.205076,0.0469 0.42463,-0.12991 0.73114,-0.39568 0.93945,-0.66797 l 0.0117,-0.0156 0.0156,-0.0215 0.002,-0.004 0.002,-0.002 c 0.69198,-0.98135 0.66992,-2.14615 0.66992,-3.35937 0,-1.11809 -0.20473,-2.25719 -0.48242,-3.37696 v -0.002 l -0.002,-0.008 c -0.27735,-1.08561 -0.63278,-2.18588 -0.98438,-3.20899 l -0.0156,-0.041 -0.006,-0.0117 c -0.12648,-0.35275 -0.22315,-0.6229 -0.33789,-0.93555 l 1.82617,0.30273 v -1.55859 c 0,-1.04862 -0.075,-2.32677 -0.42773,-3.51367 l -0.004,-0.0117 -0.004,-0.0117 c -0.18776,-0.59308 -0.4764,-1.19266 -0.98046,-1.66992 -0.52526,-0.49732 -1.252128,-0.78256 -2.029298,-0.76367 h -0.0039 c -0.948062,0.0259 -1.624432,0.54369 -2.138671,1.14258 -0.72483,-0.79185 -1.787211,-1.14258 -2.923829,-1.14258 h -1.076171 -1.107422 -2.541016 -1.150391 -3.498046 -1.138672 -2.392578 v 0.3789 c -0.486765,-0.14823 -0.924405,-0.3789 -1.501954,-0.3789 h -1.015624 -1.138672 -1.154297 -0.982422 -1.533203 -1.017578 z"
       id="path7216" />
    <path
       style="color:#000000;font-style:normal;font-variant:normal;font-weight:normal;font-stretch:normal;font-size:14.11111069px;line-height:125%;font-family:'League Gothic';-inkscape-font-specification:'League Gothic, Normal';font-variant-ligatures:normal;font-variant-position:normal;font-variant-caps:normal;font-variant-numeric:normal;font-variant-alternates:normal;font-feature-settings:normal;text-indent:0;text-align:start;text-decoration:none;text-decoration-line:none;text-decoration-style:solid;text-decoration-color:#000000;letter-spacing:1.41816664px;word-spacing:1.85472918px;text-transform:none;writing-mode:lr-tb;direction:ltr;text-orientation:mixed;dominant-baseline:auto;baseline-shift:baseline;text-anchor:start;white-space:normal;shape-padding:0;clip-rule:nonzero;display:inline;overflow:visible;visibility:visible;opacity:1;isolation:auto;mix-blend-mode:normal;color-interpolation:sRGB;color-interpolation-filters:linearRGB;solid-color:#000000;solid-opacity:1;vector-effect:none;fill:#000000;fill-opacity:1;fill-rule:nonzero;stroke:none;stroke-width:1.32291663;stroke-linecap:butt;stroke-linejoin:miter;stroke-miterlimit:4;stroke-dasharray:none;stroke-dashoffset:0;stroke-opacity:1;color-rendering:auto;image-rendering:auto;shape-rendering:auto;text-rendering:auto;enable-background:accumulate"
       d="m 70.10683,144.77307 v 0.66146 0.13901 l 1.489832,18.0511 1.046964,-1.43196 c 0.402804,-0.55083 0.82645,-1.07605 1.26969,-1.57148 l 0.146246,-0.16278 0.163296,-1.80402 0.158131,1.40094 0.956529,-0.86609 c 0.412785,-0.37372 0.838229,-0.72584 1.275377,-1.0542 l 0.228925,-0.17157 0.357084,-3.23443 0.868164,-0.50746 c 0.469707,-0.27471 0.948481,-0.5237 1.435055,-0.74621 l 0.386541,-0.17673 v -0.15244 l 0.04134,0.14934 0.684712,-0.2713 c 0.477351,-0.18897 0.961046,-0.35166 1.449007,-0.48989 l 0.155546,-0.0408 c 0.48949,-0.12764 0.98293,-0.22991 1.478978,-0.30592 l 0.561208,-0.0858 v -5.08807 l 0.312642,5.2e-4 v 5.086 l 0.718302,-0.062 c 0.179054,-0.0154 0.358105,-0.0265 0.537435,-0.0351 0.29424,0.0128 0.588184,0.0337 0.881599,0.0646 l 0.730705,0.077 v -5.12424 l 0.317294,5.2e-4 v 5.13147 l 0.546737,0.0966 c 1.132269,0.19966 2.24716,0.53431 3.330028,1.00046 l 0.0031,0.001 0.201022,0.091 c 0.496702,0.22408 0.985176,0.47558 1.464509,0.75396 l 0.886251,0.5147 0.01137,0.0584 0.230994,0.15296 c 0.51612,0.34264 1.018662,0.71727 1.505852,1.1219 l 0.04702,0.0388 c 0.05697,0.55645 0.152855,1.12885 0.329694,1.72134 0.327904,1.13755 0.914432,2.34697 1.925466,3.55999 0.443645,0.53228 0.815451,0.88547 1.289844,1.0604 0.237196,0.0875 0.520891,0.11566 0.782381,0.0357 0.26149,-0.08 0.46808,-0.25384 0.60874,-0.4377 l 0.007,-0.0103 0.007,-0.01 c 0.5373,-0.76062 0.55036,-1.7703 0.55036,-2.97966 0,-1.03638 -0.19203,-2.1277 -0.46251,-3.21841 l -5.1e-4,-0.002 -5.2e-4,-0.003 c -0.27021,-1.05767 -0.62115,-2.14293 -0.96997,-3.15795 l -0.002,-0.004 -0.002,-0.004 c -0.271035,-0.7576 -0.526856,-1.4251 -0.733799,-2.03036 l 2.170409,0.35863 v -0.7798 c 0,-1.01441 -0.0787,-2.24081 -0.40101,-3.32538 l -0.002,-0.006 -0.002,-0.005 c -0.16721,-0.52815 -0.41109,-1.01498 -0.80563,-1.38854 -0.394544,-0.37356 -0.954276,-0.59809 -1.557528,-0.58343 h -0.001 -0.001 c -0.961395,0.0263 -1.673582,0.65439 -2.06344,1.34462 -0.05419,0.094 -0.0671,0.20239 -0.111623,0.30024 -0.112971,-0.25035 -0.246215,-0.48764 -0.426331,-0.69298 -0.56988,-0.6497 -1.448935,-0.9524 -2.478918,-0.9524 H 92.557141 91.44868 88.908267 87.757433 84.259456 83.121541 81.390896 v 0.5302 c -0.567049,-0.36475 -1.276455,-0.5302 -2.163691,-0.5302 H 78.211764 77.07178 75.542158 l -0.11162,1.27331 -0.11679,-1.27331 h -2.31717 l -0.109554,1.40663 -0.100769,-1.40663 z"
       id="path7204" />
    <path
       style="font-style:normal;font-variant:normal;font-weight:normal;font-stretch:normal;font-size:14.11111069px;line-height:125%;font-family:'League Gothic';-inkscape-font-specification:'League Gothic, Normal';font-variant-ligatures:normal;font-variant-caps:normal;font-variant-numeric:normal;text-align:start;letter-spacing:1.41816664px;word-spacing:1.85472918px;writing-mode:lr-tb;text-anchor:start;fill:#ffffff;fill-opacity:0.9675926;stroke:none;stroke-width:0.99999994px;stroke-linecap:butt;stroke-linejoin:miter;stroke-opacity:1"
       d="M 267.4707 549.67383 L 267.4707 550.0957 L 272.54102 611.53516 C 274.1097 609.38999 275.76162 607.34274 277.49414 605.40625 L 279.85156 579.36523 L 280.17188 575.90625 L 280.38477 575.80273 L 280.70312 578.89453 L 283.0625 599.80664 C 284.67721 598.34475 286.34325 596.9662 288.05859 595.67773 L 293.10352 549.98242 L 293.10352 549.67383 L 287.80469 549.67383 L 285.5 575.91406 L 285.39258 577.625 L 284.9668 577.87109 L 284.80664 576.28906 L 282.36914 549.67383 L 278.20508 549.67383 L 275.74805 581.20898 L 275.58789 583.2832 L 275.16016 583.5293 L 275.05469 581.58398 L 272.76953 549.67383 L 267.4707 549.67383 z M 293.79492 549.67383 L 293.79492 580.72656 A 69.788851 85.912905 0 0 1 299.44141 577.79102 L 299.44141 566.25195 L 300.95703 565.88086 L 303.76562 576.03516 A 69.788851 85.912905 0 0 1 309.53125 574.08398 L 305.92383 563.04688 C 308.06732 561.62687 309.06055 559.21563 309.06055 556.77148 C 309.06055 552.1176 306.18555 549.67383 299.44141 549.67383 L 293.79492 549.67383 z M 310.11914 549.67383 L 310.11914 573.93359 A 69.78885 85.912904 0 0 1 315.96094 572.72656 L 315.96094 549.67383 L 310.11914 549.67383 z M 316.66016 549.67383 L 316.66016 553.13867 L 322.14258 553.15039 L 322.14258 572.14258 A 69.78885 85.912904 0 0 1 324.38867 571.99414 A 69.78885 85.912904 0 0 1 327.98242 572.25781 L 327.98242 553.16211 L 333.53125 553.17383 L 333.53125 549.67383 L 316.66016 549.67383 z M 334.18164 549.67383 L 334.18164 572.9668 A 69.78885 85.912904 0 0 1 347.32227 576.91406 L 347.32227 572.80078 L 339.92773 570.91406 L 339.92773 564.03906 L 345.24805 564.95508 L 345.24805 560.68164 L 339.92773 560.02148 L 339.92773 553.45117 L 347.32227 553.78711 L 347.32227 549.67383 L 334.18164 549.67383 z M 348.13281 549.67383 L 348.13281 577.2793 A 69.78885 85.912904 0 0 1 353.89648 580.24609 L 353.89648 567.75 L 355.44336 568.31836 L 358.28906 583.07031 A 69.78885 85.912904 0 0 1 364.19531 587.46875 L 360.51367 567.95898 C 362.70161 567.271 363.71484 564.21183 363.71484 560.48828 C 363.71484 553.3983 360.78044 549.67383 353.89648 549.67383 L 348.13281 549.67383 z M 373.16602 549.67578 C 370.49796 549.74884 368.6681 551.36146 367.46484 553.50195 C 366.26159 555.58582 365.79102 558.34239 365.79102 560.96875 C 365.79102 562.28191 365.94771 563.64747 366.26172 565.01562 C 366.83721 567.85392 367.77768 570.87634 369.0332 574.11523 C 370.28877 577.50257 371.4932 580.77888 372.5918 583.80469 C 373.11494 585.33785 373.58581 586.85626 374.05664 588.31836 C 374.89368 591.29941 375.52148 594.09407 375.52148 596.04297 C 375.52148 599.8595 374.89283 601.96642 373.21875 600.22266 C 372.01553 598.96936 371.38777 597.12117 371.02148 594.97266 C 370.60293 592.87641 370.55078 590.55636 370.55078 588.28516 L 365.00586 584.26172 C 365.00586 587.80398 365.26703 591.48543 366.41797 595.33789 C 367.56887 599.33735 369.60906 603.56761 373.21875 607.89844 C 376.30532 611.60164 378.2421 612.04148 379.44531 610.46875 C 380.64857 608.76536 381.06641 605.0634 381.06641 600.65039 C 381.06641 597.04788 380.38655 593.09616 379.39258 589.08789 C 378.3986 585.19713 377.09104 581.15131 375.7832 577.3457 C 374.68458 574.27487 373.58509 571.46808 372.74805 568.94531 C 371.911 566.49737 371.33594 564.35513 371.33594 562.49219 C 371.33594 559.28793 371.80668 557.20286 373.27148 557.35938 C 374.16084 557.50007 374.73723 558.7099 375.10352 560.38672 C 375.46976 562.1681 375.52148 564.37343 375.52148 566.32227 L 381.06641 567.23828 C 381.06641 563.54578 380.75289 559.07933 379.6543 555.38281 C 378.5557 551.91274 376.56645 549.59312 373.16602 549.67578 z M 300.07031 553.82227 C 300.73443 553.81671 301.48006 553.89154 302.10742 554.24609 C 302.94391 554.70542 303.62305 555.67663 303.62305 557.58008 C 303.62305 559.48345 302.94391 560.5875 302.10742 561.25391 C 301.27094 561.93377 300.22561 562.20529 299.44141 562.35156 L 299.44141 553.84766 C 299.63746 553.83561 299.84894 553.82412 300.07031 553.82227 z M 353.89648 554.22461 C 354.69695 554.29854 355.76335 554.44049 356.61719 555.14844 C 357.47102 555.87702 358.16602 557.25292 358.16602 559.65625 C 358.16602 562.0595 357.47102 563.13198 356.61719 563.54297 C 355.76335 563.93332 354.69695 563.7206 353.89648 563.49609 L 353.89648 554.22461 z "
       transform="scale(0.26458333)"
       id="path6670" />
    <path
       id="path7247"
       d="m 126.96203,145.96208 v 0.66211 0.66015 0.16797 l 1.63867,19.84571 2.09375,-2.86329 c 0.39062,-0.53416 0.80052,-1.04309 1.22852,-1.52148 l 0.29297,-0.32617 0.008,-0.084 1.07421,-0.97265 c 0.3984,-0.3607 0.80816,-0.69988 1.22852,-1.01563 l 0.45898,-0.34375 0.35157,-3.1875 0.58008,-0.33984 c 0.45097,-0.26376 0.91086,-0.50365 1.37695,-0.7168 l 0.15235,-0.0684 0.92773,-0.36914 c 0.45597,-0.1805 0.91942,-0.33637 1.38672,-0.46875 l 0.14258,-0.0371 c 0.46794,-0.12202 0.93895,-0.21851 1.41211,-0.29101 l 0.14843,-0.0234 1.40039,-0.12109 c 0.15765,-0.0136 0.31688,-0.0232 0.47852,-0.0312 0.27285,0.0124 0.54495,0.0322 0.81445,0.0605 l 1.37891,0.14453 0.16992,0.0293 c 1.08092,0.19061 2.14657,0.51062 3.18359,0.95703 l 0.0293,0.0117 h -0.004 l 0.16797,0.0762 c 0.47577,0.21464 0.94412,0.4554 1.4043,0.72266 l 0.62695,0.36328 0.006,0.0352 0.46289,0.30664 c 0.45107,0.29945 0.88891,0.63252 1.31836,0.98242 0.0626,0.49456 0.13443,0.99859 0.29297,1.53125 2.2e-4,7.4e-4 0.002,0.001 0.002,0.002 4e-4,0.001 -4e-4,0.003 0,0.004 0.35178,1.21787 0.98336,2.51425 2.05078,3.79492 0.46788,0.56136 0.93002,1.02171 1.57031,1.25781 0.35464,0.13082 0.77412,0.17866 1.20508,0.0469 0.42463,-0.12991 0.73114,-0.39568 0.93945,-0.66797 l 0.0117,-0.0156 0.0156,-0.0215 0.002,-0.004 0.002,-0.002 c 0.69198,-0.98134 0.66992,-2.14615 0.66992,-3.35937 0,-1.11809 -0.20473,-2.25719 -0.48242,-3.37696 v -0.002 l -0.002,-0.008 c -0.27735,-1.08561 -0.63278,-2.18588 -0.98438,-3.20899 l -0.0156,-0.041 -0.006,-0.0117 c -0.12648,-0.35275 -0.22315,-0.6229 -0.33789,-0.93555 l 1.82617,0.30273 v -1.55859 c 0,-1.04862 -0.075,-2.32677 -0.42773,-3.51367 l -0.004,-0.0117 -0.004,-0.0117 c -0.18772,-0.59309 -0.47636,-1.19267 -0.98042,-1.66993 -0.52526,-0.49732 -1.25213,-0.78256 -2.0293,-0.76367 h -0.004 c -0.94819,0.0259 -1.62456,0.5437 -2.1388,1.14259 -0.72483,-0.79185 -1.78721,-1.14258 -2.92383,-1.14258 h -1.07617 -1.10742 -2.54102 -1.15039 -3.49804 -1.13868 -2.39257 v 0.3789 c -0.48677,-0.14823 -0.92441,-0.3789 -1.50196,-0.3789 h -1.01562 -1.13868 -1.1543 -0.98242 -1.5332 -1.01758 z"
       style="color:#000000;font-style:normal;font-variant:normal;font-weight:normal;font-stretch:normal;font-size:14.11111069px;line-height:125%;font-family:'League Gothic';-inkscape-font-specification:'League Gothic, Normal';font-variant-ligatures:normal;font-variant-position:normal;font-variant-caps:normal;font-variant-numeric:normal;font-variant-alternates:normal;font-feature-settings:normal;text-indent:0;text-align:start;text-decoration:none;text-decoration-line:none;text-decoration-style:solid;text-decoration-color:#000000;letter-spacing:1.41816664px;word-spacing:1.85472918px;text-transform:none;writing-mode:lr-tb;direction:ltr;text-orientation:mixed;dominant-baseline:auto;baseline-shift:baseline;text-anchor:start;white-space:normal;shape-padding:0;clip-rule:nonzero;display:inline;overflow:visible;visibility:visible;opacity:0.9;isolation:auto;mix-blend-mode:normal;color-interpolation:sRGB;color-interpolation-filters:linearRGB;solid-color:#000000;solid-opacity:1;vector-effect:none;fill:#000000;fill-opacity:1;fill-rule:nonzero;stroke:#000000;stroke-width:1.32291663;stroke-linecap:butt;stroke-linejoin:miter;stroke-miterlimit:4;stroke-dasharray:none;stroke-dashoffset:0;stroke-opacity:1;filter:url(#filter7253);color-rendering:auto;image-rendering:auto;shape-rendering:auto;text-rendering:auto;enable-background:accumulate"
       inkscape:connector-curvature="0" />
    <path
       inkscape:connector-curvature="0"
       style="color:#000000;font-style:normal;font-variant:normal;font-weight:normal;font-stretch:normal;font-size:14.11111069px;line-height:125%;font-family:'League Gothic';-inkscape-font-specification:'League Gothic, Normal';font-variant-ligatures:normal;font-variant-position:normal;font-variant-caps:normal;font-variant-numeric:normal;font-variant-alternates:normal;font-feature-settings:normal;text-indent:0;text-align:start;text-decoration:none;text-decoration-line:none;text-decoration-style:solid;text-decoration-color:#000000;letter-spacing:1.41816664px;word-spacing:1.85472918px;text-transform:none;writing-mode:lr-tb;direction:ltr;text-orientation:mixed;dominant-baseline:auto;baseline-shift:baseline;text-anchor:start;white-space:normal;shape-padding:0;clip-rule:nonzero;display:inline;overflow:visible;visibility:visible;opacity:1;isolation:auto;mix-blend-mode:normal;color-interpolation:sRGB;color-interpolation-filters:linearRGB;solid-color:#000000;solid-opacity:1;vector-effect:none;fill:#ff2a2a;fill-opacity:1;fill-rule:nonzero;stroke:none;stroke-width:1.32291663;stroke-linecap:butt;stroke-linejoin:miter;stroke-miterlimit:4;stroke-dasharray:none;stroke-dashoffset:0;stroke-opacity:1;color-rendering:auto;image-rendering:auto;shape-rendering:auto;text-rendering:auto;enable-background:accumulate"
       d="m 126.43286,144.90374 v 0.66211 0.66015 0.16797 l 1.63867,19.84571 2.09375,-2.86329 c 0.39062,-0.53416 0.80052,-1.04309 1.22852,-1.52148 l 0.29297,-0.32617 0.008,-0.084 1.07421,-0.97265 c 0.3984,-0.3607 0.80816,-0.69988 1.22852,-1.01563 l 0.45898,-0.34375 0.35157,-3.1875 0.58008,-0.33984 c 0.45097,-0.26376 0.91086,-0.50365 1.37695,-0.7168 l 0.15235,-0.0684 0.92773,-0.36914 c 0.45597,-0.1805 0.91942,-0.33637 1.38672,-0.46875 l 0.14258,-0.0371 c 0.46794,-0.12202 0.93895,-0.21851 1.41211,-0.29101 l 0.14843,-0.0234 1.40039,-0.12109 c 0.15765,-0.0136 0.31688,-0.0232 0.47852,-0.0312 0.27285,0.0124 0.54495,0.0322 0.81445,0.0605 l 1.37891,0.14453 0.16992,0.0293 c 1.08092,0.19061 2.14657,0.51062 3.18359,0.95703 l 0.0293,0.0117 h -0.004 l 0.16797,0.0762 c 0.47577,0.21464 0.94412,0.4554 1.4043,0.72266 l 0.62695,0.36328 0.006,0.0352 0.46289,0.30664 c 0.45107,0.29945 0.88891,0.63252 1.31836,0.98242 0.0626,0.49456 0.13443,0.99859 0.29297,1.53125 2.2e-4,7.4e-4 0.002,0.001 0.002,0.002 4e-4,0.001 -4e-4,0.003 0,0.004 0.35178,1.21787 0.98336,2.51425 2.05078,3.79492 0.46788,0.56136 0.93002,1.02171 1.57031,1.25781 0.35464,0.13082 0.77412,0.17866 1.20508,0.0469 0.42463,-0.12991 0.73114,-0.39568 0.93945,-0.66797 l 0.0117,-0.0156 0.0156,-0.0215 0.002,-0.004 0.002,-0.002 c 0.69198,-0.98134 0.66992,-2.14615 0.66992,-3.35937 0,-1.11809 -0.20473,-2.25719 -0.48242,-3.37696 v -0.002 l -0.002,-0.008 c -0.27735,-1.08561 -0.63278,-2.18588 -0.98438,-3.20899 l -0.0156,-0.041 -0.006,-0.0117 c -0.12648,-0.35275 -0.22315,-0.6229 -0.33789,-0.93555 l 1.82617,0.30273 v -1.55859 c 0,-1.04862 -0.075,-2.32677 -0.42773,-3.51367 l -0.004,-0.0117 -0.004,-0.0117 c -0.18772,-0.59309 -0.47636,-1.19267 -0.98042,-1.66993 -0.52526,-0.49732 -1.25213,-0.78256 -2.0293,-0.76367 h -0.004 c -0.94819,0.0259 -1.62456,0.5437 -2.1388,1.14259 -0.72483,-0.79185 -1.78721,-1.14258 -2.92383,-1.14258 h -1.07617 -1.10742 -2.54102 -1.15039 -3.49804 -1.13868 -2.39257 v 0.3789 c -0.48677,-0.14823 -0.92441,-0.3789 -1.50196,-0.3789 h -1.01562 -1.13868 -1.1543 -0.98242 -1.5332 -1.01758 z"
       id="path7216-7" />
    <path
       inkscape:connector-curvature="0"
       style="color:#000000;font-style:normal;font-variant:normal;font-weight:normal;font-stretch:normal;font-size:14.11111069px;line-height:125%;font-family:'League Gothic';-inkscape-font-specification:'League Gothic, Normal';font-variant-ligatures:normal;font-variant-position:normal;font-variant-caps:normal;font-variant-numeric:normal;font-variant-alternates:normal;font-feature-settings:normal;text-indent:0;text-align:start;text-decoration:none;text-decoration-line:none;text-decoration-style:solid;text-decoration-color:#000000;letter-spacing:1.41816664px;word-spacing:1.85472918px;text-transform:none;writing-mode:lr-tb;direction:ltr;text-orientation:mixed;dominant-baseline:auto;baseline-shift:baseline;text-anchor:start;white-space:normal;shape-padding:0;clip-rule:nonzero;display:inline;overflow:visible;visibility:visible;opacity:1;isolation:auto;mix-blend-mode:normal;color-interpolation:sRGB;color-interpolation-filters:linearRGB;solid-color:#000000;solid-opacity:1;vector-effect:none;fill:#2a7fff;fill-opacity:1;fill-rule:nonzero;stroke:none;stroke-width:1.32291663;stroke-linecap:butt;stroke-linejoin:miter;stroke-miterlimit:4;stroke-dasharray:none;stroke-dashoffset:0;stroke-opacity:1;color-rendering:auto;image-rendering:auto;shape-rendering:auto;text-rendering:auto;enable-background:accumulate"
       d="m 127.09438,145.56548 v 0.66146 0.13901 l 1.48983,18.0511 1.04696,-1.43196 c 0.40281,-0.55083 0.82645,-1.07605 1.26969,-1.57148 l 0.14625,-0.16278 0.16329,-1.80402 0.15813,1.40094 0.95653,-0.86609 c 0.41279,-0.37372 0.83823,-0.72584 1.27538,-1.0542 l 0.22893,-0.17157 0.35708,-3.23443 0.86817,-0.50746 c 0.4697,-0.27471 0.94848,-0.5237 1.43505,-0.74621 l 0.38654,-0.17673 v -0.15244 l 0.0413,0.14934 0.68472,-0.2713 c 0.47735,-0.18897 0.96104,-0.35166 1.449,-0.48989 l 0.15555,-0.0408 c 0.48949,-0.12764 0.98293,-0.22991 1.47898,-0.30592 l 0.5612,-0.0858 v -5.08807 l 0.31265,5.3e-4 v 5.086 l 0.7183,-0.062 c 0.17905,-0.0154 0.3581,-0.0265 0.53743,-0.0351 0.29424,0.0128 0.58819,0.0337 0.8816,0.0646 l 0.73071,0.077 v -5.12425 l 0.31729,5.3e-4 v 5.13147 l 0.54674,0.0966 c 1.13227,0.19966 2.24716,0.53431 3.33003,1.00046 l 0.003,0.001 0.20102,0.091 c 0.4967,0.22408 0.98517,0.47558 1.46451,0.75396 l 0.88625,0.5147 0.0114,0.0584 0.23099,0.15296 c 0.51612,0.34264 1.01866,0.71727 1.50585,1.1219 l 0.047,0.0388 c 0.057,0.55645 0.15286,1.12885 0.3297,1.72134 0.3279,1.13755 0.91443,2.34697 1.92546,3.55999 0.44365,0.53228 0.81546,0.88547 1.28985,1.0604 0.23719,0.0875 0.52089,0.11566 0.78238,0.0357 0.26149,-0.08 0.46808,-0.25384 0.60874,-0.4377 l 0.007,-0.0103 0.007,-0.01 c 0.5373,-0.76062 0.55036,-1.7703 0.55036,-2.97966 0,-1.03638 -0.19203,-2.1277 -0.46251,-3.21841 l -5.3e-4,-0.002 -5.3e-4,-0.003 c -0.27019,-1.05768 -0.62113,-2.14294 -0.96995,-3.15796 l -0.002,-0.004 -0.002,-0.004 c -0.27106,-0.75761 -0.52689,-1.42511 -0.73383,-2.03037 l 2.17041,0.35863 v -0.7798 c 0,-1.01441 -0.0787,-2.24081 -0.40101,-3.32538 l -0.002,-0.006 -0.002,-0.005 c -0.16721,-0.52815 -0.41109,-1.01498 -0.80563,-1.38854 -0.39458,-0.37356 -0.95431,-0.59809 -1.55756,-0.58343 h -0.001 -0.001 c -0.9614,0.0263 -1.67358,0.65439 -2.06344,1.34462 -0.0542,0.094 -0.0671,0.20239 -0.11162,0.30024 -0.11298,-0.25035 -0.24622,-0.48764 -0.42634,-0.69298 -0.56979,-0.6497 -1.44885,-0.9524 -2.47883,-0.9524 h -1.07569 -1.10846 -2.54041 -1.15084 -3.49797 -1.13792 -1.73064 v 0.5302 c -0.56705,-0.36475 -1.27646,-0.5302 -2.1637,-0.5302 h -1.01544 -1.13998 -1.52963 l -0.11162,1.27331 -0.11679,-1.27331 h -2.31717 l -0.10955,1.40663 -0.10077,-1.40663 z"
       id="path7204-0" />
    <path
       inkscape:connector-curvature="0"
       style="font-style:normal;font-variant:normal;font-weight:normal;font-stretch:normal;font-size:14.11111069px;line-height:125%;font-family:'League Gothic';-inkscape-font-specification:'League Gothic, Normal';font-variant-ligatures:normal;font-variant-caps:normal;font-variant-numeric:normal;text-align:start;letter-spacing:1.41816664px;word-spacing:1.85472918px;writing-mode:lr-tb;text-anchor:start;fill:#ffffff;fill-opacity:0.96759261;stroke:none;stroke-width:0.26458332;stroke-linecap:butt;stroke-linejoin:miter;stroke-miterlimit:4;stroke-dasharray:none;stroke-opacity:1"
       d="m 127.75583,146.22695 v 0.11162 l 1.34153,16.25585 c 0.41504,-0.56757 0.85211,-1.10924 1.31051,-1.6216 l 0.62373,-6.89002 0.0848,-0.91519 0.0563,-0.0274 0.0842,0.81804 0.62426,5.53299 c 0.42722,-0.38679 0.86803,-0.75153 1.32188,-1.09244 l 1.33481,-12.09022 v -0.0816 h -1.40199 l -0.60978,6.94272 -0.0284,0.45269 -0.11266,0.0651 -0.0424,-0.41858 -0.64492,-7.04194 h -1.10174 l -0.65009,8.34367 -0.0424,0.54881 -0.11317,0.0651 -0.0279,-0.5147 -0.60461,-8.44289 z m 6.96496,0 v 8.21603 a 18.464967,22.731123 0 0 1 1.49397,-0.77669 v -3.05305 l 0.401,-0.0982 0.74311,2.68665 a 18.464967,22.731123 0 0 1 1.52549,-0.51625 l -0.95446,-2.92023 c 0.56713,-0.37571 0.82992,-1.01368 0.82992,-1.66036 0,-1.23134 -0.76068,-1.87792 -2.54506,-1.87792 z m 4.31911,0 v 6.41872 a 18.464967,22.731123 0 0 1 1.54565,-0.31936 v -6.09936 z m 1.73065,0 v 0.91673 l 1.45056,0.003 v 5.02502 a 18.464967,22.731123 0 0 1 0.59427,-0.0393 18.464967,22.731123 0 0 1 0.95085,0.0698 v -5.05241 l 1.46813,0.003 v -0.92604 z m 4.63589,0 v 6.16293 a 18.464967,22.731123 0 0 1 3.47679,1.04438 v -1.08831 l -1.95647,-0.49919 v -1.81901 l 1.40767,0.24236 v -1.13068 l -1.40767,-0.17467 v -1.73839 l 1.95647,0.0889 v -1.0883 z m 3.69125,0 v 7.30394 a 18.464967,22.731123 0 0 1 1.52497,0.78497 v -3.30626 l 0.40928,0.15038 0.75292,3.90312 a 18.464967,22.731123 0 0 1 1.5627,1.16375 l -0.9741,-5.16196 c 0.57889,-0.18203 0.84697,-0.99143 0.84697,-1.97662 0,-1.87589 -0.77639,-2.86132 -2.59777,-2.86132 z m 6.62337,5.2e-4 c -0.70593,0.0194 -1.19008,0.44601 -1.50844,1.01235 -0.31836,0.55135 -0.44286,1.2807 -0.44286,1.97559 0,0.34744 0.0415,0.70874 0.12454,1.07073 0.15226,0.75097 0.40109,1.55065 0.73328,2.40761 0.33221,0.89623 0.65088,1.76309 0.94155,2.56367 0.13841,0.40564 0.263,0.80739 0.38757,1.19424 0.22147,0.78873 0.38757,1.52815 0.38757,2.0438 0,1.00979 -0.16633,1.56725 -0.60926,1.10588 -0.31835,-0.33161 -0.48445,-0.82061 -0.58136,-1.38907 -0.11074,-0.55463 -0.12454,-1.16847 -0.12454,-1.7694 l -1.46709,-1.06453 c 0,0.93722 0.0691,1.91127 0.37362,2.93057 0.30451,1.05819 0.84431,2.17745 1.79937,3.32331 0.81666,0.97981 1.3291,1.09618 1.64744,0.68006 0.31837,-0.45069 0.42892,-1.43016 0.42892,-2.59777 0,-0.95317 -0.17988,-1.99873 -0.44287,-3.05925 -0.26299,-1.02943 -0.60895,-2.09988 -0.95498,-3.10679 -0.29068,-0.81249 -0.58158,-1.55512 -0.80305,-2.2226 -0.22147,-0.64768 -0.37362,-1.21448 -0.37362,-1.70739 0,-0.84779 0.12455,-1.39946 0.51211,-1.35805 0.23531,0.0372 0.38782,0.35732 0.48473,0.80098 0.0969,0.47132 0.11058,1.05482 0.11058,1.57045 l 1.4671,0.24236 c 0,-0.97697 -0.0829,-2.15872 -0.37362,-3.13676 -0.29067,-0.91812 -0.81699,-1.53186 -1.71669,-1.50999 z m -19.33991,1.0971 c 0.17572,-0.002 0.373,0.0183 0.53899,0.11213 0.22132,0.12153 0.40101,0.3785 0.40101,0.88212 0,0.5036 -0.17969,0.79571 -0.40101,0.97204 -0.22132,0.17987 -0.4979,0.25171 -0.70538,0.29042 v -2.25 c 0.0519,-0.003 0.10782,-0.006 0.16639,-0.007 z m 14.24151,0.10645 c 0.21179,0.0196 0.49394,0.0571 0.71985,0.24443 0.22591,0.19277 0.4098,0.55681 0.4098,1.19269 0,0.63586 -0.18389,0.91962 -0.4098,1.02836 -0.22591,0.10328 -0.50806,0.047 -0.71985,-0.0124 z"
       id="path6670-0" />
    <path
       id="path7277"
       d="m 127.75583,146.22695 v 0.11162 l 1.34153,16.25585 c 0.41504,-0.56757 0.85211,-1.10924 1.31051,-1.6216 l 0.62373,-6.89002 0.0848,-0.91519 0.0563,-0.0274 0.0842,0.81804 0.62426,5.53299 c 0.42722,-0.38679 0.86803,-0.75153 1.32188,-1.09244 l 1.33481,-12.09022 v -0.0816 h -1.40199 l -0.60978,6.94272 -0.0284,0.45269 -0.11266,0.0651 -0.0424,-0.41858 -0.64492,-7.04194 h -1.10174 l -0.65009,8.34367 -0.0424,0.54881 -0.11317,0.0651 -0.0279,-0.5147 -0.60461,-8.44289 z m 6.96496,0 v 8.21603 a 18.464967,22.731123 0 0 1 1.49397,-0.77669 v -3.05305 l 0.401,-0.0982 0.74311,2.68665 a 18.464967,22.731123 0 0 1 1.52549,-0.51625 l -0.95446,-2.92023 c 0.56713,-0.37571 0.82992,-1.01368 0.82992,-1.66036 0,-1.23134 -0.76068,-1.87792 -2.54506,-1.87792 z m 4.31911,0 v 6.41872 a 18.464967,22.731123 0 0 1 1.54565,-0.31936 v -6.09936 z m 1.73065,0 v 0.91673 l 1.45056,0.003 v 5.02502 a 18.464967,22.731123 0 0 1 0.59427,-0.0393 18.464967,22.731123 0 0 1 0.95085,0.0698 v -5.05241 l 1.46813,0.003 v -0.92604 z m 4.63589,0 v 6.16293 a 18.464967,22.731123 0 0 1 3.47679,1.04438 v -1.08831 l -1.95647,-0.49919 v -1.81901 l 1.40767,0.24236 v -1.13068 l -1.40767,-0.17467 v -1.73839 l 1.95647,0.0889 v -1.0883 z m 3.69125,0 v 7.30394 a 18.464967,22.731123 0 0 1 1.52497,0.78497 v -3.30626 l 0.40928,0.15038 0.75292,3.90312 a 18.464967,22.731123 0 0 1 1.5627,1.16375 l -0.9741,-5.16196 c 0.57889,-0.18203 0.84697,-0.99143 0.84697,-1.97662 0,-1.87589 -0.77639,-2.86132 -2.59777,-2.86132 z m 6.62337,5.2e-4 c -0.70593,0.0194 -1.19008,0.44601 -1.50844,1.01235 -0.31836,0.55135 -0.44286,1.2807 -0.44286,1.97559 0,0.34744 0.0415,0.70874 0.12454,1.07073 0.15226,0.75097 0.40109,1.55065 0.73328,2.40761 0.33221,0.89623 0.65088,1.76309 0.94155,2.56367 0.13841,0.40564 0.263,0.80739 0.38757,1.19424 0.22147,0.78873 0.38757,1.52815 0.38757,2.0438 0,1.00979 -0.16633,1.56725 -0.60926,1.10588 -0.31835,-0.33161 -0.48445,-0.82061 -0.58136,-1.38907 -0.11074,-0.55463 -0.12454,-1.16847 -0.12454,-1.7694 l -1.46709,-1.06453 c 0,0.93722 0.0691,1.91127 0.37362,2.93057 0.30451,1.05819 0.84431,2.17745 1.79937,3.32331 0.81666,0.97981 1.3291,1.09618 1.64744,0.68006 0.31837,-0.45069 0.42892,-1.43016 0.42892,-2.59777 0,-0.95317 -0.17988,-1.99873 -0.44287,-3.05925 -0.26299,-1.02943 -0.60895,-2.09988 -0.95498,-3.10679 -0.29068,-0.81249 -0.58158,-1.55512 -0.80305,-2.2226 -0.22147,-0.64768 -0.37362,-1.21448 -0.37362,-1.70739 0,-0.84779 0.12455,-1.39946 0.51211,-1.35805 0.23531,0.0372 0.38782,0.35732 0.48473,0.80098 0.0969,0.47132 0.11058,1.05482 0.11058,1.57045 l 1.4671,0.24236 c 0,-0.97697 -0.0829,-2.15872 -0.37362,-3.13676 -0.29067,-0.91812 -0.81699,-1.53186 -1.71669,-1.50999 z m -19.33991,1.0971 c 0.17572,-0.002 0.373,0.0183 0.53899,0.11213 0.22132,0.12153 0.40101,0.3785 0.40101,0.88212 0,0.5036 -0.17969,0.79571 -0.40101,0.97204 -0.22132,0.17987 -0.4979,0.25171 -0.70538,0.29042 v -2.25 c 0.0519,-0.003 0.10782,-0.006 0.16639,-0.007 z m 14.24151,0.10645 c 0.21179,0.0196 0.49394,0.0571 0.71985,0.24443 0.22591,0.19277 0.4098,0.55681 0.4098,1.19269 0,0.63586 -0.18389,0.91962 -0.4098,1.02836 -0.22591,0.10328 -0.50806,0.047 -0.71985,-0.0124 z"
       style="font-style:normal;font-variant:normal;font-weight:normal;font-stretch:normal;font-size:14.11111069px;line-height:125%;font-family:'League Gothic';-inkscape-font-specification:'League Gothic, Normal';font-variant-ligatures:normal;font-variant-caps:normal;font-variant-numeric:normal;text-align:start;letter-spacing:1.41816664px;word-spacing:1.85472918px;writing-mode:lr-tb;text-anchor:start;fill:#93aca7;fill-opacity:0.96759261;stroke:none;stroke-width:0.26458332;stroke-linecap:butt;stroke-linejoin:miter;stroke-miterlimit:4;stroke-dasharray:none;stroke-opacity:1;opacity:0.226"
       inkscape:connector-curvature="0" />
    <ellipse
       style="color:#000000;clip-rule:nonzero;display:inline;overflow:visible;visibility:visible;opacity:0.22600002;isolation:auto;mix-blend-mode:normal;color-interpolation:sRGB;color-interpolation-filters:linearRGB;solid-color:#000000;solid-opacity:1;fill:#008066;fill-opacity:1;fill-rule:evenodd;stroke:none;stroke-width:0.26458332;stroke-linecap:square;stroke-linejoin:round;stroke-miterlimit:4;stroke-dasharray:none;stroke-dashoffset:0;stroke-opacity:1;marker:none;color-rendering:auto;image-rendering:auto;shape-rendering:auto;text-rendering:auto;enable-background:accumulate"
       id="path7279"
       cx="143.96472"
       cy="159.91037"
       rx="23.853804"
       ry="9.845541" />
  </g>
</svg>
